<svg width="70" height="70" viewBox="0 0 70 70" fill="none" xmlns="http://www.w3.org/2000/svg">
<path d="M52.64 35.0685C53.7619 35.0685 54.6715 34.159 54.6715 33.0371C54.6715 31.9151 53.7619 31.0056 52.64 31.0056C51.5181 31.0056 50.6085 31.9151 50.6085 33.0371C50.6085 34.159 51.5181 35.0685 52.64 35.0685Z" stroke="#0A0D14" stroke-width="2" stroke-linecap="round" stroke-linejoin="round"/>
<path d="M58.6571 41.5421C60.0037 41.5421 61.0954 40.4504 61.0954 39.1037C61.0954 37.7571 60.0037 36.6654 58.6571 36.6654C57.3104 36.6654 56.2188 37.7571 56.2188 39.1037C56.2188 40.4504 57.3104 41.5421 58.6571 41.5421Z" stroke="#0A0D14" stroke-width="2" stroke-linecap="round" stroke-linejoin="round"/>
<path d="M17.8106 15.2615L34.2956 18.149M22.6727 21.1108L33.3842 23.0096M19.5592 25.2875L32.6244 27.5669M42.2187 46.6609L41.8148 41.6967C40.8027 34.9811 33.0473 33.3506 30.6483 39.8359C27.9927 45.325 18.5252 50.454 8.16375 51.7227C12.339 65.2065 34.6617 62.5523 37.714 58.6352" stroke="#0A0D14" stroke-width="2" stroke-linecap="round" stroke-linejoin="round"/>
<path d="M13.5581 25.3852V27.5873M13.5581 31.0187V33.2208M15.349 29.3037L17.551 29.3796M9.71542 29.3796H11.9175M20.5202 40.7487L22.0237 42.3602M22.0237 36.7121L20.4662 38.2696M16.4835 36.8185L18.041 38.376M18.041 40.6948L16.4835 42.2523M30.6483 39.8358C34.0433 42.665 37.851 42.716 41.8148 41.6966M16.0096 59.9885C24.3133 57.1739 29.454 53.5675 32.3196 49.3689M32.2437 56.1298C30.6162 58.3814 28.6402 60.2496 25.2933 61.7852M10.3571 55.8687C15.0835 55.7375 18.7804 54.0954 22.3694 52.255M34.58 35.8983L39.2715 10.8558C39.9248 6.52165 45.0275 7.76561 44.0373 11.6914L39.1315 36.8812M39.3094 50.7354C32.044 54.8596 38.9506 61.7735 43.1069 59.0916C46.1271 63.1414 52.5408 62.3729 54.0444 59.3191C62.6281 63.1487 64.5998 51.1919 57.54 50.1287C55.9708 44.6439 50.295 43.6931 46.9044 47.0137C44.0067 46.2991 41.0302 45.1675 39.3094 50.7354Z" stroke="#0A0D14" stroke-width="2" stroke-linecap="round" stroke-linejoin="round"/>
</svg>
