<svg width="32" height="32" viewBox="0 0 32 32" fill="none" xmlns="http://www.w3.org/2000/svg">
<path d="M24.064 16.0314C24.5769 16.0314 24.9926 15.6156 24.9926 15.1027C24.9926 14.5899 24.5769 14.1741 24.064 14.1741C23.5511 14.1741 23.1353 14.5899 23.1353 15.1027C23.1353 15.6156 23.5511 16.0314 24.064 16.0314Z" stroke="black" stroke-linecap="round" stroke-linejoin="round"/>
<path d="M26.8147 18.9906C27.4303 18.9906 27.9293 18.4915 27.9293 17.8759C27.9293 17.2603 27.4303 16.7612 26.8147 16.7612C26.1991 16.7612 25.7 17.2603 25.7 17.8759C25.7 18.4915 26.1991 18.9906 26.8147 18.9906Z" stroke="black" stroke-linecap="round" stroke-linejoin="round"/>
<path d="M8.14199 6.97656L15.678 8.29656M10.3647 9.65056L15.2613 10.5186M8.94133 11.5599L14.914 12.6019M19.3 21.3306L19.1153 19.0612C18.6527 15.9912 15.1073 15.2459 14.0107 18.2106C12.7967 20.7199 8.46866 23.0646 3.73199 23.6446C5.64066 29.8086 15.8453 28.5952 17.2407 26.8046" stroke="black" stroke-linecap="round" stroke-linejoin="round"/>
<path d="M6.19801 11.6047V12.6114M6.19801 14.18V15.1867M7.01668 13.396L8.02335 13.4307M4.44135 13.4307H5.44801M9.38068 18.628L10.068 19.3647M10.068 16.7827L9.35601 17.4947M7.53535 16.8314L8.24735 17.5434M8.24735 18.6034L7.53535 19.3154M14.0107 18.2107C15.5627 19.504 17.3033 19.5274 19.1153 19.0614M7.31868 27.4234C11.1147 26.1367 13.4647 24.488 14.7747 22.5687M14.74 25.6594C13.996 26.6887 13.0927 27.5427 11.5627 28.2447M4.73468 25.54C6.89535 25.48 8.58535 24.7294 10.226 23.888M15.808 16.4107L17.9527 4.96269C18.2513 2.98136 20.584 3.55003 20.1313 5.3447L17.8887 16.86M17.97 23.1934C14.6487 25.0787 17.806 28.2394 19.706 27.0134C21.0867 28.8647 24.0187 28.5134 24.706 27.1174C28.63 28.868 29.5313 23.402 26.304 22.916C25.5867 20.4087 22.992 19.974 21.442 21.492C20.1173 21.1654 18.7567 20.648 17.97 23.1934Z" stroke="black" stroke-linecap="round" stroke-linejoin="round"/>
</svg>
