<svg width="50" height="50" viewBox="0 0 50 50" fill="none" xmlns="http://www.w3.org/2000/svg">
<path fill-rule="evenodd" clip-rule="evenodd" d="M19.1818 23.3333C18.2041 23.3333 18 23.5252 18 24.4444V26.1111C18 27.0304 18.2041 27.2222 19.1818 27.2222H21.5455V33.8889C21.5455 34.8081 21.7495 35 22.7273 35H25.0909C26.0687 35 26.2727 34.8081 26.2727 33.8889V27.2222H28.9267C29.6683 27.2222 29.8594 27.0867 30.0631 26.4164L30.5696 24.7497C30.9185 23.6014 30.7035 23.3333 29.4332 23.3333H26.2727V20.5556C26.2727 19.9419 26.8018 19.4444 27.4545 19.4444H30.8182C31.7959 19.4444 32 19.2526 32 18.3333V16.1111C32 15.1919 31.7959 15 30.8182 15H27.4545C24.191 15 21.5455 17.4873 21.5455 20.5556V23.3333H19.1818Z" stroke="#868C98" stroke-width="1.5" stroke-linejoin="round"/>
<circle cx="25" cy="25" r="24.5" stroke="#868C98"/>
</svg>
