<svg width="119" height="74" viewBox="0 0 119 74" fill="none" xmlns="http://www.w3.org/2000/svg">
<path d="M61.8868 51.2235L60.3977 51.0429L61.8868 51.2235ZM108.3 72.9784C108.983 73.4471 109.917 73.2734 110.386 72.5904L118.025 61.4597C118.493 60.7766 118.32 59.8429 117.637 59.3741C116.954 58.9053 116.02 59.079 115.551 59.7621L108.761 69.6561L98.8669 62.8657C98.1838 62.397 97.2501 62.5707 96.7813 63.2537C96.3126 63.9367 96.4863 64.8705 97.1693 65.3392L108.3 72.9784ZM0.412328 1.44232L-1.78732e-05 2.88453C10.7803 5.96675 26.7523 12.1337 39.6152 20.5811C46.0471 24.8051 51.6274 29.5514 55.4048 34.702C59.1712 39.8376 61.0945 45.2987 60.3977 51.0429L61.8868 51.2235L63.3759 51.4042C64.1894 44.6982 61.9024 38.4889 57.8239 32.9278C53.7565 27.3817 47.8575 22.405 41.262 18.0735C28.0701 9.41004 11.7945 3.13652 0.824674 0.000109346L0.412328 1.44232ZM61.8868 51.2235L60.3977 51.0429C59.5656 57.9023 53.6739 62.3316 45.4015 64.5546C37.188 66.7617 27.1512 66.6115 19.1777 64.6859C15.1904 63.723 11.8212 62.3401 9.47772 60.6704C7.12514 58.9942 6.00495 57.1864 5.97976 55.3602C5.95416 53.5037 7.04785 51.0952 10.3642 48.209C13.6604 45.3403 18.9577 42.1781 26.8294 38.8289L26.2422 37.4486L25.6549 36.0684C17.6448 39.4764 12.0265 42.7853 8.39477 45.946C4.78331 49.089 2.93683 52.268 2.98005 55.4016C3.02369 58.5654 4.98132 61.1503 7.73688 63.1136C10.5016 65.0835 14.2708 66.5871 18.4735 67.6021C26.8802 69.6323 37.43 69.8031 46.18 67.4518C54.8712 65.1163 62.32 60.1075 63.3759 51.4042L61.8868 51.2235ZM26.2422 37.4486L26.8294 38.8289C58.3819 25.4043 77.2781 27.7156 88.8441 35.9966C100.521 44.3573 105.283 59.1623 107.674 72.0159L109.149 71.7416L110.624 71.4673C108.212 58.5016 103.284 42.6455 90.5905 33.5573C77.7858 24.3894 57.6302 22.4639 25.6549 36.0684L26.2422 37.4486Z" fill="#FFD557"/>
</svg>
