<svg width="50" height="50" viewBox="0 0 50 50" fill="none" xmlns="http://www.w3.org/2000/svg">
<path d="M15.5 25C15.5 20.5217 15.5 18.2825 16.8912 16.8912C18.2825 15.5 20.5217 15.5 25 15.5C29.4783 15.5 31.7175 15.5 33.1088 16.8912C34.5 18.2825 34.5 20.5217 34.5 25C34.5 29.4783 34.5 31.7175 33.1088 33.1088C31.7175 34.5 29.4783 34.5 25 34.5C20.5217 34.5 18.2825 34.5 16.8912 33.1088C15.5 31.7175 15.5 29.4783 15.5 25Z" stroke="#868C98" stroke-width="1.5" stroke-linejoin="round"/>
<path d="M29.5 25C29.5 27.4853 27.4853 29.5 25 29.5C22.5147 29.5 20.5 27.4853 20.5 25C20.5 22.5147 22.5147 20.5 25 20.5C27.4853 20.5 29.5 22.5147 29.5 25Z" stroke="#868C98" stroke-width="1.5"/>
<path d="M30.5078 19.5L30.4988 19.5" stroke="#868C98" stroke-width="2" stroke-linecap="round" stroke-linejoin="round"/>
<circle cx="25" cy="25" r="24.5" stroke="#868C98"/>
</svg>
