<svg width="46" height="46" viewBox="0 0 46 46" fill="none" xmlns="http://www.w3.org/2000/svg">
<path d="M22.0073 0.923101C22.1023 -0.307633 23.9064 -0.307638 24.0014 0.923097L25.1297 15.5432C25.1927 16.3592 26.1558 16.7581 26.7773 16.2256L37.9132 6.68555C38.8506 5.88245 40.1263 7.15814 39.3232 8.09556L29.7831 19.2314C29.2506 19.8529 29.6495 20.816 30.4656 20.879L45.0856 22.0074C46.3164 22.1023 46.3164 23.9064 45.0856 24.0014L30.4656 25.1298C29.6495 25.1928 29.2506 26.1559 29.7831 26.7774L39.3232 37.9132C40.1263 38.8506 38.8506 40.1263 37.9132 39.3232L26.7773 29.7831C26.1558 29.2507 25.1927 29.6496 25.1297 30.4656L24.0014 45.0857C23.9064 46.3164 22.1023 46.3164 22.0073 45.0857L20.879 30.4656C20.816 29.6496 19.8529 29.2507 19.2313 29.7831L8.09551 39.3232C7.15809 40.1263 5.88239 38.8506 6.68549 37.9132L16.2256 26.7774C16.7581 26.1559 16.3591 25.1928 15.5431 25.1298L0.92304 24.0014C-0.307694 23.9064 -0.307699 22.1023 0.923036 22.0074L15.5431 20.879C16.3591 20.816 16.7581 19.8529 16.2256 19.2314L6.68549 8.09557C5.88239 7.15814 7.15808 5.88245 8.0955 6.68554L19.2313 16.2256C19.8529 16.7581 20.816 16.3592 20.879 15.5432L22.0073 0.923101Z" fill="#FFD557"/>
</svg>
