<svg width="50" height="50" viewBox="0 0 50 50" fill="none" xmlns="http://www.w3.org/2000/svg">
<path d="M33.2001 23.1C33.2001 23.32 33.02 23.501 32.8 23.49C31.6246 23.4311 30.4767 23.1135 29.438 22.56C29.157 22.41 28.8 22.605 28.8 22.924V28.5C28.8 29.6696 28.4581 30.8137 27.8163 31.7916C27.1746 32.7695 26.261 33.5385 25.188 34.004C24.115 34.4695 22.9294 34.6112 21.7769 34.4118C20.6244 34.2123 19.5553 33.6803 18.7011 32.8813C17.847 32.0823 17.245 31.051 16.9692 29.9144C16.6934 28.7777 16.7559 27.5852 17.1489 26.4836C17.5419 25.382 18.2483 24.4192 19.1813 23.7138C20.1142 23.0083 21.233 22.591 22.4 22.513C22.4522 22.5102 22.5044 22.5183 22.5533 22.5366C22.6022 22.5549 22.6468 22.5831 22.6844 22.6194C22.7219 22.6557 22.7515 22.6993 22.7714 22.7476C22.7913 22.7959 22.8011 22.8478 22.8 22.9V25.7C22.8 25.92 22.6201 26.097 22.4021 26.133C21.9507 26.2089 21.5305 26.4122 21.191 26.7191C20.8514 27.0259 20.6067 27.4234 20.4856 27.8648C20.3645 28.3061 20.3721 28.7729 20.5076 29.21C20.643 29.6472 20.9006 30.0365 21.25 30.3321C21.5994 30.6276 22.026 30.8172 22.4796 30.8783C22.9331 30.9394 23.3947 30.8695 23.8099 30.677C24.225 30.4844 24.5765 30.1772 24.8228 29.7915C25.0691 29.4057 25.2 28.9577 25.2 28.5V15.9C25.2 15.7939 25.2422 15.6922 25.3172 15.6172C25.3922 15.5421 25.494 15.5 25.6 15.5H28.4C28.507 15.5027 28.6091 15.5452 28.6864 15.6192C28.7637 15.6932 28.8106 15.7933 28.818 15.9C28.9116 16.9247 29.3613 17.8843 30.089 18.6118C30.8167 19.3393 31.7763 19.7887 32.8011 19.882C33.0211 19.902 33.201 20.079 33.201 20.3L33.2001 23.1Z" stroke="#868C98" stroke-width="1.5" stroke-linecap="round" stroke-linejoin="round"/>
<circle cx="25" cy="25" r="24.5" stroke="#868C98"/>
</svg>
